<?xml version="1.0" encoding="utf-8"?>
<!-- Generator: Adobe Illustrator 17.0.0, SVG Export Plug-In . SVG Version: 6.00 Build 0)  -->
<!DOCTYPE svg PUBLIC "-//W3C//DTD SVG 1.1//EN" "http://www.w3.org/Graphics/SVG/1.1/DTD/svg11.dtd">
<svg version="1.1" xmlns="http://www.w3.org/2000/svg" xmlns:xlink="http://www.w3.org/1999/xlink" x="0px" y="0px"
	 width="4385.469px" height="850.39px" viewBox="0 0 4385.469 850.39" enable-background="new 0 0 4385.469 850.39"
	 xml:space="preserve">
<g id="Reperes">
</g>
<g id="Signe">
	<g>
		<g id="O_1_">
			<path fill="#705040" d="M725.871,124.547c76.947,76.946,124.54,183.246,124.54,300.663
				c0,234.832-190.369,425.201-425.201,425.201S0.01,660.042,0.01,425.21c0-117.416,47.593-223.716,124.539-300.662"/>
			<line display="none" fill="none" x1="124.548" y1="124.548" x2="725.871" y2="124.547"/>
		</g>
		<g id="Calque_8_1_" display="none">
			<circle display="inline" fill="#D3B795" cx="425.21" cy="425.21" r="425.201"/>
		</g>
		<g id="Calque_2_1_" display="none">
			<line display="inline" fill="none" stroke="#E16050" stroke-miterlimit="10" x1="0.01" y1="0.01" x2="850.411" y2="850.411"/>
			<line display="inline" fill="none" stroke="#E16050" stroke-miterlimit="10" x1="0.01" y1="850.411" x2="850.411" y2="0.01"/>
		</g>
		<g id="M_1_">
			<rect x="124.548" y="124.548" fill="#3D2D26" width="601.325" height="601.325"/>
		</g>
		<g id="Calque_4_1_" display="none">
			<rect x="367.682" y="379.32" display="inline" fill="#662C83" width="57.529" height="45.891"/>
			<rect x="425.21" y="379.32" display="inline" fill="#662C83" width="57.529" height="45.891"/>
		</g>
		<g id="Calque_5_1_" display="none">
			
				<line display="inline" fill="none" stroke="#E5087E" stroke-miterlimit="10" x1="124.548" y1="124.548" x2="367.682" y2="425.21"/>
			
				<line display="inline" fill="none" stroke="#E5087E" stroke-miterlimit="10" x1="725.872" y1="124.548" x2="482.739" y2="425.21"/>
		</g>
		<g id="U_1_">
			<rect x="288.403" y="397.21" fill="#AA7A5A" width="273.614" height="263.236"/>
			<ellipse fill="#AA7A5A" cx="425.21" cy="660.445" rx="136.807" ry="65.428"/>
		</g>
		<g id="BROSSE_1_">
			<path fill="#D3B795" d="M725.872,124.548L505.382,397.21H345.038l-220.49-272.662C201.494,47.602,307.795,0.01,425.21,0.01
				S648.925,47.601,725.872,124.548"/>
		</g>
	</g>
</g>
<g id="OPALE_fond_blanc" display="none">
	<g display="inline">
		<path fill="#3C2C26" d="M1256.604,850.351H1088.2c-64.837,0-94.862-32.201-94.862-80.503c0-48.737,30.025-80.938,94.862-80.938
			h168.403c64.402,0,94.428,32.201,94.428,80.938C1351.031,818.149,1321.006,850.351,1256.604,850.351z M1258.344,718.064H1086.46
			c-44.386,0-64.837,20.888-64.837,51.783c0,30.46,20.452,51.348,64.837,51.348h171.884c43.95,0,64.402-20.888,64.402-51.348
			C1322.746,738.952,1302.294,718.064,1258.344,718.064z"/>
		<path fill="#3C2C26" d="M999.865,655.404v-91.382c0-44.82,27.85-75.281,88.771-75.281h15.23c60.921,0,88.771,30.461,88.771,75.281
			v62.227h152.303v29.155H999.865z M1166.092,626.684v-62.226c0-28.285-19.146-47.432-60.486-47.432h-17.841
			c-41.774,0-60.486,19.146-60.486,47.432v62.226H1166.092z"/>
		<path fill="#3C2C26" d="M1283.147,359.932v95.733l61.792,12.619v27.85l-345.074-71.8v-36.118l345.074-70.059v29.59
			L1283.147,359.932z M1257.474,450.443v-85.29l-205.391,40.904v1.741L1257.474,450.443z"/>
		<path fill="#3C2C26" d="M999.865,292.046v-29.155h316.79V162.807h28.285v129.239H999.865z"/>
		<path fill="#3C2C26" d="M999.865,137.137V1.37h28.72v107.482h127.499V5.722h27.414v103.13h133.156V0.064h28.285v137.072H999.865z"
			/>
	</g>
</g>
<g id="OPALE_fond_noir">
	<g>
		<path fill="#D3B795" d="M1256.604,850.351H1088.2c-64.837,0-94.862-32.201-94.862-80.503c0-48.737,30.025-80.938,94.862-80.938
			h168.403c64.402,0,94.428,32.201,94.428,80.938C1351.031,818.149,1321.006,850.351,1256.604,850.351z M1258.344,718.064H1086.46
			c-44.386,0-64.837,20.888-64.837,51.783c0,30.46,20.452,51.348,64.837,51.348h171.884c43.95,0,64.402-20.888,64.402-51.348
			C1322.746,738.952,1302.294,718.064,1258.344,718.064z"/>
		<path fill="#D3B795" d="M999.865,655.404v-91.382c0-44.82,27.85-75.281,88.771-75.281h15.23c60.921,0,88.771,30.461,88.771,75.281
			v62.227h152.303v29.155H999.865z M1166.092,626.684v-62.226c0-28.285-19.146-47.432-60.486-47.432h-17.841
			c-41.774,0-60.486,19.146-60.486,47.432v62.226H1166.092z"/>
		<path fill="#D3B795" d="M1283.147,359.932v95.733l61.792,12.619v27.85l-345.074-71.8v-36.118l345.074-70.059v29.59
			L1283.147,359.932z M1257.474,450.443v-85.29l-205.391,40.904v1.741L1257.474,450.443z"/>
		<path fill="#D3B795" d="M999.865,292.046v-29.155h316.79V162.807h28.285v129.239H999.865z"/>
		<path fill="#D3B795" d="M999.865,137.137V1.37h28.72v107.482h127.499V5.722h27.414v103.13h133.156V0.064h28.285v137.072H999.865z"
			/>
	</g>
</g>
<g id="Calque_4">
	<g>
		<path fill="#6F503F" d="M1991.172,850.396V97.676h-4.289l-221.956,752.72h-41.817l-224.101-752.72h-4.289v752.72h-42.89V0.102
			h67.552l221.956,760.226h5.361L1967.583,0.102h67.552v850.295H1991.172z"/>
		<path fill="#6F503F" d="M2444.73,684.197h-261.628l-35.384,166.199h-46.107l185.5-850.295h58.974l182.283,850.295h-48.252
			L2444.73,684.197z M2192.752,641.308h243.401L2318.206,84.809h-4.289L2192.752,641.308z"/>
		<path fill="#6F503F" d="M2976.563,850.396l-184.428-545.776h-4.288l-144.754,191.933v353.843h-46.106V0.102h46.106v424.611h4.289
			L2967.984,0.102h51.468L2823.23,259.586l200.511,590.811H2976.563z"/>
		<path fill="#6F503F" d="M3093.435,0.102h324.893v46.107H3138.47v349.553h269.135v45.035H3138.47V804.29h283.074v46.106h-328.109
			V0.102z"/>
		<path fill="#AA7A5A" d="M3497.66-14.91h70.769v633.7c0,102.937,36.457,161.91,126.526,161.91
			c92.213,0,125.453-58.974,125.453-162.982V-14.91h69.696v632.628c0,158.693-75.058,232.679-195.149,232.679
			c-125.454,0-197.295-73.985-197.295-232.679V-14.91z"/>
		<path fill="#AA7A5A" d="M3974.797,0.102h225.173c110.441,0,185.499,68.624,185.499,218.739v37.529
			c0,150.115-75.058,218.739-185.499,218.739h-153.332v375.288h-71.841V0.102z M4045.565,409.701h153.332
			c69.696,0,116.875-47.179,116.875-149.043v-43.962c0-102.936-47.179-149.042-116.875-149.042h-153.332V409.701z"/>
	</g>
</g>
</svg>
